<svg width="256" height="256" viewBox="0 0 256 256" fill="none" xmlns="http://www.w3.org/2000/svg">
<g clip-path="url(#clip0_2241_31787)">
<rect width="256" height="256" rx="12" fill="white"/>
<rect width="1544" height="500" transform="translate(-88 -184)" fill="white"/>
<rect x="-88" y="-184" width="1544" height="500" fill="#E9F5FF"/>
<circle cx="152" cy="120" r="72" fill="#DBECFC"/>
<path d="M98 64V192C98 195.314 100.686 198 104 198H200C203.314 198 206 195.314 206 192V101.657C206 100.066 205.368 98.5394 204.243 97.4142L166.586 59.7574C165.461 58.6321 163.934 58 162.343 58H104C100.686 58 98 60.6863 98 64Z" fill="#EAEFF4" stroke="white" stroke-width="4"/>
<rect x="112" y="112" width="40" height="4" rx="2" fill="#B1C6D8"/>
<rect x="112" y="124" width="80" height="4" rx="2" fill="#B1C6D8"/>
<rect x="112" y="136" width="80" height="4" rx="2" fill="#B1C6D8"/>
<path d="M160 104V60H162.343C163.404 60 164.421 60.4214 165.172 61.1716L202.828 98.8284C203.579 99.5786 204 100.596 204 101.657V104H160Z" fill="#B1C6D8"/>
<rect x="86" y="154" width="60" height="32" rx="6" fill="#04C9F3" stroke="white" stroke-width="4"/>
<path d="M101.214 177.166C100.793 177.166 100.43 177.017 100.128 176.719C99.8295 176.416 99.6803 176.054 99.6803 175.632C99.6803 175.214 99.8295 174.857 100.128 174.558C100.43 174.26 100.793 174.111 101.214 174.111C101.623 174.111 101.981 174.26 102.288 174.558C102.595 174.857 102.748 175.214 102.748 175.632C102.748 175.913 102.676 176.171 102.531 176.406C102.391 176.636 102.205 176.821 101.975 176.962C101.745 177.098 101.491 177.166 101.214 177.166ZM105.035 163.909H108.449L112.054 172.705H112.207L115.812 163.909H119.226V177H116.541V168.479H116.432L113.044 176.936H111.216L107.829 168.447H107.72V177H105.035V163.909ZM126.147 177H121.506V163.909H126.185C127.502 163.909 128.635 164.171 129.585 164.695C130.536 165.215 131.267 165.963 131.778 166.939C132.294 167.915 132.551 169.082 132.551 170.442C132.551 171.805 132.294 172.977 131.778 173.957C131.267 174.937 130.532 175.69 129.573 176.214C128.618 176.738 127.476 177 126.147 177ZM124.274 174.629H126.032C126.85 174.629 127.538 174.484 128.096 174.194C128.659 173.9 129.081 173.446 129.362 172.832C129.647 172.214 129.79 171.418 129.79 170.442C129.79 169.474 129.647 168.684 129.362 168.07C129.081 167.457 128.661 167.005 128.103 166.715C127.544 166.425 126.856 166.281 126.038 166.281H124.274V174.629Z" fill="#00576B"/>
<path d="M66 120L52 106V114H31.6C31.0399 114 30.7599 114 30.546 114.109C30.3578 114.205 30.2049 114.358 30.109 114.546C30 114.76 30 115.04 30 115.6V124.4C30 124.96 30 125.24 30.109 125.454C30.2049 125.642 30.3578 125.795 30.546 125.891C30.7599 126 31.0399 126 31.6 126H52V134L66 120Z" fill="#04C9F3" stroke="#04C9F3" stroke-width="2" stroke-linecap="round" stroke-linejoin="round"/>
</g>
<defs>
<clipPath id="clip0_2241_31787">
<rect width="256" height="256" rx="12" fill="white"/>
</clipPath>
</defs>
</svg>
